<svg width="26" height="26" viewBox="0 0 26 26" fill="none" xmlns="http://www.w3.org/2000/svg">
<g filter="url(#filter0_d_155_1741)">
<path d="M13.2892 0.5C12.1452 0.5 11.0125 0.725317 9.95559 1.16309C8.89872 1.60086 7.93842 2.24251 7.12953 3.0514C5.49589 4.68504 4.57813 6.90072 4.57812 9.21103C4.57813 13.0613 7.07819 16.3279 10.5365 17.4865C10.972 17.5562 11.1114 17.2862 11.1114 17.051V15.5788C8.69844 16.1015 8.18449 14.4115 8.18449 14.4115C7.78378 13.401 7.21757 13.131 7.21757 13.131C6.42486 12.5909 7.27854 12.6083 7.27854 12.6083C8.14965 12.6693 8.61133 13.5056 8.61133 13.5056C9.36919 14.8296 10.6497 14.4376 11.1462 14.2286C11.2246 13.6624 11.4511 13.2791 11.695 13.0613C9.76119 12.8435 7.73152 12.0944 7.73152 8.77548C7.73152 7.80855 8.06254 7.03327 8.62875 6.41479C8.54164 6.19701 8.23676 5.29107 8.71586 4.11508C8.71586 4.11508 9.44759 3.87988 11.1114 5.0036C11.7996 4.81196 12.5487 4.71614 13.2892 4.71614C14.0296 4.71614 14.7787 4.81196 15.4669 5.0036C17.1307 3.87988 17.8624 4.11508 17.8624 4.11508C18.3416 5.29107 18.0367 6.19701 17.9496 6.41479C18.5158 7.03327 18.8468 7.80855 18.8468 8.77548C18.8468 12.1031 16.8084 12.8348 14.8659 13.0526C15.1794 13.3226 15.4669 13.854 15.4669 14.6641V17.051C15.4669 17.2862 15.6063 17.5649 16.0506 17.4865C19.5088 16.3192 22.0002 13.0613 22.0002 9.21103C22.0002 8.06708 21.7749 6.93433 21.3371 5.87746C20.8993 4.82059 20.2577 3.8603 19.4488 3.0514C18.6399 2.24251 17.6796 1.60086 16.6227 1.16309C15.5659 0.725317 14.4331 0.5 13.2892 0.5Z" fill="#F2F2F2"/>
</g>
<defs>
<filter id="filter0_d_155_1741" x="0.578125" y="0.5" width="25.4219" height="25" filterUnits="userSpaceOnUse" color-interpolation-filters="sRGB">
<feFlood flood-opacity="0" result="BackgroundImageFix"/>
<feColorMatrix in="SourceAlpha" type="matrix" values="0 0 0 0 0 0 0 0 0 0 0 0 0 0 0 0 0 0 127 0" result="hardAlpha"/>
<feOffset dy="4"/>
<feGaussianBlur stdDeviation="2"/>
<feComposite in2="hardAlpha" operator="out"/>
<feColorMatrix type="matrix" values="0 0 0 0 0 0 0 0 0 0 0 0 0 0 0 0 0 0 0.25 0"/>
<feBlend mode="normal" in2="BackgroundImageFix" result="effect1_dropShadow_155_1741"/>
<feBlend mode="normal" in="SourceGraphic" in2="effect1_dropShadow_155_1741" result="shape"/>
</filter>
</defs>
</svg>
