<svg width="17" height="14" viewBox="0 0 17 14" fill="none" xmlns="http://www.w3.org/2000/svg">
<path d="M14.2195 1.01357L13.1319 1.86326L8.50105 5.30452L3.87022 1.82927L2.78261 0.979578C2.52639 0.767617 2.21361 0.635486 1.88303 0.599552C1.55244 0.563618 1.21858 0.625462 0.922805 0.777422C0.627026 0.929381 0.382329 1.16478 0.21903 1.45445C0.0557299 1.74412 -0.0189967 2.07534 0.00410776 2.40707V12.255C0.00410776 12.5615 0.125856 12.8554 0.342571 13.0721C0.559285 13.2889 0.853212 13.4106 1.15969 13.4106H3.87022V6.85097L8.50105 10.3262L13.1319 6.85097V13.4106H15.8424C16.1489 13.4106 16.4428 13.2889 16.6595 13.0721C16.8763 12.8554 16.998 12.5615 16.998 12.255V2.40707C17.014 2.0782 16.934 1.75178 16.7679 1.46749C16.6019 1.1832 16.3568 0.953277 16.0625 0.805671C15.7681 0.658066 15.4373 0.599135 15.1101 0.636042C14.7829 0.672949 14.4735 0.804104 14.2195 1.01357Z" fill="#F2F2F2"/>
</svg>
