<svg width="17" height="16" viewBox="0 0 17 16" fill="none" xmlns="http://www.w3.org/2000/svg">
<path d="M10.0581 0.600776L10.171 0.704776L12.8376 3.37144H15.1363C15.5848 3.3713 16.0168 3.54069 16.3457 3.84566C16.6745 4.15063 16.876 4.56864 16.9096 5.01589L16.9141 5.14922V14.0381C16.914 14.4865 16.7445 14.9182 16.4395 15.2469C16.1346 15.5756 15.7167 15.7769 15.2696 15.8106L15.1363 15.8159H2.69184C2.24333 15.816 1.81134 15.6466 1.48246 15.3417C1.15359 15.0367 0.952146 14.6187 0.918507 14.1714L0.914063 14.0381V5.14922C0.913921 4.70071 1.08331 4.26872 1.38828 3.93984C1.69325 3.61097 2.11126 3.40953 2.55851 3.37589L2.69184 3.37144H4.99051L7.65717 0.704776C7.95347 0.408508 8.3449 0.226418 8.76238 0.190639C9.17986 0.15486 9.59656 0.26769 9.93895 0.509221L10.0581 0.600776ZM15.1363 5.14922H2.69184V14.0381H15.1363V5.14922ZM7.13628 10.4826C7.37203 10.4826 7.59812 10.5762 7.76482 10.7429C7.93152 10.9096 8.02517 11.1357 8.02517 11.3714C8.02517 11.6072 7.93152 11.8333 7.76482 12C7.59812 12.1667 7.37203 12.2603 7.13628 12.2603H5.35851C5.12276 12.2603 4.89667 12.1667 4.72997 12C4.56327 11.8333 4.46962 11.6072 4.46962 11.3714C4.46962 11.1357 4.56327 10.9096 4.72997 10.7429C4.89667 10.5762 5.12276 10.4826 5.35851 10.4826H7.13628ZM10.6918 6.927C10.9184 6.92725 11.1363 7.014 11.3011 7.16953C11.4658 7.32506 11.5649 7.53762 11.5782 7.76379C11.5915 7.98996 11.5179 8.21267 11.3725 8.38641C11.2271 8.56014 11.0208 8.6718 10.7958 8.69855L10.6918 8.70478H5.35851C5.13195 8.70453 4.91403 8.61777 4.74929 8.46224C4.58455 8.30672 4.48541 8.09415 4.47213 7.86798C4.45885 7.64181 4.53244 7.41911 4.67785 7.24537C4.82327 7.07163 5.02953 6.95998 5.25451 6.93322L5.35851 6.927H10.6918ZM8.91406 1.96167L7.50428 3.37144H10.3238L8.91406 1.96167Z" fill="#F2F2F2"/>
</svg>
