<svg width="16" height="16" viewBox="0 0 16 16" fill="none" xmlns="http://www.w3.org/2000/svg">
<path d="M15.9144 15.1459C15.9144 15.3724 15.8244 15.5897 15.6642 15.7498C15.5041 15.91 15.2868 16 15.0603 16H1.39509C1.16858 16 0.951339 15.91 0.791169 15.7498C0.630999 15.5897 0.541016 15.3724 0.541016 15.1459V6.16958C0.540926 6.03943 0.570581 5.91098 0.627718 5.79405C0.684855 5.67711 0.767961 5.57478 0.870689 5.49486L7.7033 0.179949C7.85322 0.0633207 8.03775 0 8.2277 0C8.41765 0 8.60218 0.0633207 8.7521 0.179949L15.5847 5.49486C15.6874 5.57478 15.7705 5.67711 15.8277 5.79405C15.8848 5.91098 15.9145 6.03943 15.9144 6.16958V15.1459ZM14.2062 14.2918V6.58637L8.2277 1.93678L2.24917 6.58637V14.2918H14.2062Z" fill="#F2F2F2"/>
</svg>
