<svg width="18" height="15" viewBox="0 0 18 15" fill="none" xmlns="http://www.w3.org/2000/svg">
<path d="M14.8337 8.44738L10.1864 13.0955C9.87827 13.4035 9.46044 13.5766 9.02476 13.5766C8.58909 13.5766 8.17125 13.4035 7.86314 13.0955L3.21583 8.4482C2.83166 8.06738 2.5265 7.61444 2.31785 7.11537C2.10921 6.6163 2.00119 6.08093 2.00001 5.54001C1.99883 4.99908 2.10449 4.46324 2.31095 3.96327C2.51741 3.46329 2.82059 3.00901 3.20308 2.62652C3.58558 2.24402 4.03985 1.94084 4.53983 1.73439C5.03981 1.52793 5.57564 1.42226 6.11657 1.42345C6.6575 1.42463 7.19286 1.53264 7.69193 1.74129C8.191 1.94993 8.64395 2.2551 9.02476 2.63926C9.79827 1.88501 10.8378 1.46587 11.9182 1.47263C12.9985 1.4794 14.0327 1.91154 14.7967 2.67543C15.5607 3.43932 15.993 4.47345 15.9999 5.55381C16.0068 6.63417 15.5878 7.67376 14.8337 8.44738Z" stroke="#F2F2F2" stroke-width="2.5" stroke-linecap="round" stroke-linejoin="round"/>
</svg>
