<svg width="17" height="18" viewBox="0 0 17 18" fill="none" xmlns="http://www.w3.org/2000/svg">
<path d="M8.45664 11.4001C9.78212 11.4001 10.8566 10.3256 10.8566 9.0001C10.8566 7.67461 9.78212 6.6001 8.45664 6.6001C7.13116 6.6001 6.05664 7.67461 6.05664 9.0001C6.05664 10.3256 7.13116 11.4001 8.45664 11.4001Z" stroke="#F2F2F2" stroke-width="1.3"/>
<path d="M9.86861 1.1216C9.57501 1 9.20221 1 8.45661 1C7.71101 1 7.33821 1 7.04461 1.1216C6.85035 1.20201 6.67385 1.31992 6.52519 1.46858C6.37653 1.61724 6.25862 1.79374 6.17821 1.988C6.10461 2.1664 6.07501 2.3752 6.06381 2.6784C6.05883 2.89759 5.99821 3.11192 5.88766 3.30126C5.77711 3.49059 5.62025 3.64872 5.43181 3.7608C5.24053 3.86803 5.02512 3.92488 4.80584 3.926C4.58655 3.92712 4.37058 3.87248 4.17821 3.7672C3.90941 3.6248 3.71501 3.5464 3.52221 3.5208C3.10167 3.4655 2.67637 3.57945 2.33981 3.8376C2.08861 4.032 1.90141 4.3544 1.52861 5C1.15581 5.6456 0.96861 5.968 0.92781 6.284C0.900319 6.49236 0.914146 6.7041 0.968504 6.90712C1.02286 7.11013 1.11668 7.30045 1.24461 7.4672C1.36301 7.6208 1.52861 7.7496 1.78541 7.9112C2.16381 8.1488 2.40701 8.5536 2.40701 9C2.40701 9.4464 2.16381 9.8512 1.78541 10.088C1.52861 10.2504 1.36221 10.3792 1.24461 10.5328C1.11668 10.6995 1.02286 10.8899 0.968504 11.0929C0.914146 11.2959 0.900319 11.5076 0.92781 11.716C0.96941 12.0312 1.15581 12.3544 1.52781 13C1.90141 13.6456 2.08781 13.968 2.33981 14.1624C2.50656 14.2903 2.69688 14.3841 2.89989 14.4385C3.10291 14.4929 3.31465 14.5067 3.52301 14.4792C3.71501 14.4536 3.90941 14.3752 4.17821 14.2328C4.37058 14.1275 4.58655 14.0729 4.80584 14.074C5.02512 14.0751 5.24053 14.132 5.43181 14.2392C5.81821 14.4632 6.04781 14.8752 6.06381 15.3216C6.07501 15.6256 6.10381 15.8336 6.17821 16.012C6.25862 16.2063 6.37653 16.3828 6.52519 16.5314C6.67385 16.6801 6.85035 16.798 7.04461 16.8784C7.33821 17 7.71101 17 8.45661 17C9.20221 17 9.57501 17 9.86861 16.8784C10.0629 16.798 10.2394 16.6801 10.388 16.5314C10.5367 16.3828 10.6546 16.2063 10.735 16.012C10.8086 15.8336 10.8382 15.6256 10.8494 15.3216C10.8654 14.8752 11.095 14.4624 11.4814 14.2392C11.6727 14.132 11.8881 14.0751 12.1074 14.074C12.3267 14.0729 12.5426 14.1275 12.735 14.2328C13.0038 14.3752 13.1982 14.4536 13.3902 14.4792C13.5986 14.5067 13.8103 14.4929 14.0133 14.4385C14.2163 14.3841 14.4067 14.2903 14.5734 14.1624C14.8254 13.9688 15.0118 13.6456 15.3846 13C15.7574 12.3544 15.9446 12.032 15.9854 11.716C16.0129 11.5076 15.9991 11.2959 15.9447 11.0929C15.8904 10.8899 15.7965 10.6995 15.6686 10.5328C15.5502 10.3792 15.3846 10.2504 15.1278 10.0888C14.9404 9.97489 14.785 9.8152 14.6763 9.62474C14.5676 9.43428 14.509 9.2193 14.5062 9C14.5062 8.5536 14.7494 8.1488 15.1278 7.912C15.3846 7.7496 15.551 7.6208 15.6686 7.4672C15.7965 7.30045 15.8904 7.11013 15.9447 6.90712C15.9991 6.7041 16.0129 6.49236 15.9854 6.284C15.9438 5.9688 15.7574 5.6456 15.3854 5C15.0118 4.3544 14.8254 4.032 14.5734 3.8376C14.4067 3.70967 14.2163 3.61585 14.0133 3.56149C13.8103 3.50714 13.5986 3.49331 13.3902 3.5208C13.1982 3.5464 13.0038 3.6248 12.7342 3.7672C12.5419 3.87233 12.3261 3.9269 12.107 3.92578C11.8879 3.92466 11.6726 3.86789 11.4814 3.7608C11.293 3.64872 11.1361 3.49059 11.0256 3.30126C10.915 3.11192 10.8544 2.89759 10.8494 2.6784C10.8382 2.3744 10.8094 2.1664 10.735 1.988C10.6546 1.79374 10.5367 1.61724 10.388 1.46858C10.2394 1.31992 10.0629 1.20201 9.86861 1.1216Z" stroke="#F2F2F2" stroke-width="1.3"/>
</svg>
