<svg width="22" height="20" viewBox="0 0 22 20" fill="none" xmlns="http://www.w3.org/2000/svg">
<path d="M17.6656 5.54358C18.5496 5.54358 19.3975 5.89477 20.0226 6.51989C20.6477 7.14501 20.9989 7.99286 20.9989 8.87691C20.9989 9.76097 20.6477 10.6088 20.0226 11.2339C19.3975 11.8591 18.5496 12.2102 17.6656 12.2102M8.77669 5.54358V17.7658C8.77669 18.0605 8.65963 18.3431 8.45126 18.5515C8.24288 18.7598 7.96027 18.8769 7.66558 18.8769H6.55447C6.25979 18.8769 5.97717 18.7598 5.7688 18.5515C5.56042 18.3431 5.44336 18.0605 5.44336 17.7658V12.2102" stroke="#F2F2F2" stroke-width="1.5" stroke-linecap="round" stroke-linejoin="round"/>
<path d="M11 5.54356L16.0267 1.35467C16.1727 1.23302 16.3504 1.15551 16.539 1.13123C16.7275 1.10696 16.9191 1.13693 17.0912 1.21762C17.2633 1.29831 17.4088 1.42639 17.5108 1.58684C17.6127 1.74729 17.6668 1.93347 17.6667 2.12356V15.6302C17.6668 15.8203 17.6127 16.0065 17.5108 16.1669C17.4088 16.3274 17.2633 16.4555 17.0912 16.5362C16.9191 16.6169 16.7275 16.6468 16.539 16.6226C16.3504 16.5983 16.1727 16.5208 16.0267 16.3991L11 12.2102H2.11111C1.81643 12.2102 1.53381 12.0932 1.32544 11.8848C1.11706 11.6764 1 11.3938 1 11.0991V6.65467C1 6.35999 1.11706 6.07737 1.32544 5.869C1.53381 5.66062 1.81643 5.54356 2.11111 5.54356H11Z" stroke="#F2F2F2" stroke-width="1.5" stroke-linecap="round" stroke-linejoin="round"/>
</svg>
