<svg width="16" height="17" viewBox="0 0 16 17" fill="none" xmlns="http://www.w3.org/2000/svg">
<path d="M5.43333 7.48889L10.5667 4.84444M5.43333 9.51111L10.5667 12.1556M1 8.5C1 9.11884 1.24583 9.71233 1.68342 10.1499C2.121 10.5875 2.71449 10.8333 3.33333 10.8333C3.95217 10.8333 4.54566 10.5875 4.98325 10.1499C5.42083 9.71233 5.66667 9.11884 5.66667 8.5C5.66667 7.88116 5.42083 7.28767 4.98325 6.85008C4.54566 6.4125 3.95217 6.16667 3.33333 6.16667C2.71449 6.16667 2.121 6.4125 1.68342 6.85008C1.24583 7.28767 1 7.88116 1 8.5ZM10.3333 3.83333C10.3333 4.45217 10.5792 5.04566 11.0168 5.48325C11.4543 5.92083 12.0478 6.16667 12.6667 6.16667C13.2855 6.16667 13.879 5.92083 14.3166 5.48325C14.7542 5.04566 15 4.45217 15 3.83333C15 3.21449 14.7542 2.621 14.3166 2.18342C13.879 1.74583 13.2855 1.5 12.6667 1.5C12.0478 1.5 11.4543 1.74583 11.0168 2.18342C10.5792 2.621 10.3333 3.21449 10.3333 3.83333ZM10.3333 13.1667C10.3333 13.7855 10.5792 14.379 11.0168 14.8166C11.4543 15.2542 12.0478 15.5 12.6667 15.5C13.2855 15.5 13.879 15.2542 14.3166 14.8166C14.7542 14.379 15 13.7855 15 13.1667C15 12.5478 14.7542 11.9543 14.3166 11.5168C13.879 11.0792 13.2855 10.8333 12.6667 10.8333C12.0478 10.8333 11.4543 11.0792 11.0168 11.5168C10.5792 11.9543 10.3333 12.5478 10.3333 13.1667Z" stroke="#F2F2F2" stroke-width="2" stroke-linecap="round" stroke-linejoin="round"/>
</svg>
